<?xml version="1.0" encoding="iso-8859-1"?>
<!-- Generator: Adobe Illustrator 19.0.0, SVG Export Plug-In . SVG Version: 6.00 Build 0)  -->
<svg version="1.1" id="Layer_1" xmlns="http://www.w3.org/2000/svg" xmlns:xlink="http://www.w3.org/1999/xlink" x="0px" y="0px"
	 viewBox="0 0 203 203" style="enable-background:new 0 0 203 203;" xml:space="preserve">
<g>
	<g>
		<g>
			<path d="M199.5,22.75H3.5c-1.934,0-3.5,1.567-3.5,3.5v150.5c0,1.933,1.566,3.5,3.5,3.5h196c1.934,0,3.5-1.567,3.5-3.5V26.25
				C203,24.317,201.434,22.75,199.5,22.75z M196,173.25H7V29.75h189V173.25z"/>
			<path d="M27.511,67.38c0.684,0.684,1.579,1.026,2.475,1.026c0.895,0,1.791-0.342,2.474-1.026l5.672-5.672l5.672,5.672
				c0.684,0.684,1.579,1.026,2.475,1.026c0.895,0,1.791-0.342,2.474-1.026c1.367-1.367,1.367-3.582,0-4.949l-5.672-5.672
				l5.672-5.672c1.367-1.367,1.367-3.582,0-4.949s-3.582-1.367-4.949,0l-5.672,5.672l-5.672-5.672c-1.367-1.367-3.582-1.367-4.949,0
				s-1.367,3.582,0,4.949l5.672,5.672l-5.672,5.672C26.144,63.798,26.144,66.013,27.511,67.38z"/>
			<path d="M153.511,154.88c0.684,0.684,1.579,1.025,2.475,1.025c0.895,0,1.791-0.342,2.475-1.025l5.672-5.672l5.672,5.672
				c0.684,0.684,1.579,1.025,2.475,1.025s1.791-0.342,2.475-1.025c1.367-1.367,1.367-3.582,0-4.949l-5.672-5.672l5.672-5.672
				c1.367-1.367,1.367-3.582,0-4.949s-3.582-1.367-4.949,0l-5.672,5.672l-5.672-5.672c-1.367-1.367-3.582-1.367-4.949,0
				s-1.367,3.582,0,4.949l5.672,5.672l-5.672,5.672C152.144,151.298,152.144,153.513,153.511,154.88z"/>
			<path d="M41.778,71.058c-1.914,0.273-3.244,2.046-2.97,3.96c1.367,9.56,9.205,27.639,29.08,27.639
				c11.747,0,16.584-7.856,21.26-15.452c5.619-9.126,11.987-19.471,31.893-22.629c8.545-1.359,19.472-1.468,23.078,5.67
				c3.958,7.825-1.787,21.381-9.639,29.131c-5.277,5.214-12.018,7.813-18.539,10.327c-10.897,4.201-22.162,8.545-25.86,24.514
				c-1.425,6.161,0.838,9.955,2.987,12.052c4.119,4.013,11.727,5.332,19.954,5.332c14.43,0,30.765-4.057,33.486-4.761
				c1.873-0.484,2.997-2.393,2.512-4.266c-0.482-1.871-2.393-2.987-4.262-2.512c-14.68,3.796-40.363,7.474-46.802,1.196
				c-0.813-0.793-1.805-2.222-1.053-5.462c2.857-12.353,11.112-15.535,21.557-19.563c6.853-2.642,14.622-5.638,20.938-11.878
				c9.775-9.651,16.55-26.231,10.968-37.271c-3.042-6.017-10.787-12.544-30.42-9.425c-23.088,3.662-30.669,15.979-36.76,25.874
				c-4.905,7.966-7.81,12.122-15.299,12.122c-18.737,0-22.019-20.754-22.148-21.631C45.466,72.114,43.695,70.769,41.778,71.058z"/>
		</g>
	</g>
</g>
<g>
</g>
<g>
</g>
<g>
</g>
<g>
</g>
<g>
</g>
<g>
</g>
<g>
</g>
<g>
</g>
<g>
</g>
<g>
</g>
<g>
</g>
<g>
</g>
<g>
</g>
<g>
</g>
<g>
</g>
</svg>
