<?xml version="1.0" encoding="iso-8859-1"?>
<!-- Generator: Adobe Illustrator 19.0.0, SVG Export Plug-In . SVG Version: 6.00 Build 0)  -->
<svg version="1.1" id="Layer_1" xmlns="http://www.w3.org/2000/svg" xmlns:xlink="http://www.w3.org/1999/xlink" x="0px" y="0px"
	 viewBox="0 0 496 496" style="enable-background:new 0 0 496 496;" xml:space="preserve">
<g>
	<g>
		<g>
			<path d="M395.312,336l10.344-10.344l-11.312-11.312L384,324.688l-23.872-23.872C365.264,283.648,368,265.92,368,248
				c0-37.168-11.104-72.872-32-103.48V96c0-22.056-17.944-40-40-40h-19.056C283.664,50.128,288,41.608,288,32
				c0-17.648-14.352-32-32-32s-32,14.352-32,32c0,9.608,4.336,18.128,11.056,24H216c-9.072,0-17.344,3.152-24.064,8.256
				C189.304,64.136,186.672,64,184,64C82.536,64,0,146.536,0,248s82.536,184,184,184c49.992,0,97.752-20.432,132.376-56.312
				l8.312,8.312l-10.344,10.344l11.312,11.312L336,395.312l88.408,88.408c7.92,7.92,18.456,12.28,29.656,12.28
				c23.12,0,41.936-18.816,41.936-41.936c0-11.2-4.36-21.736-12.28-29.656L395.312,336z M330.864,166.664
				c6.672,12,11.8,24.672,15.328,37.84c-6.6-11.512-15.368-21.744-25.904-30.064C324.512,172.872,328.136,170.16,330.864,166.664z
				 M256,16c8.824,0,16,7.176,16,16s-7.176,16-16,16c-8.824,0-16-7.176-16-16S247.176,16,256,16z M192,96c0-13.232,10.768-24,24-24
				h80c13.232,0,24,10.768,24,24v56c0,4.416-3.584,8-8,8c-4.416,0-8-3.584-8-8V88h-16v56h-64V88h-16v64c0,4.416-3.584,8-8,8
				s-8-3.584-8-8V96z M264,248v-64h-16v64h-24v-88h64v88H264z M288,264v16h-24v-16H288z M248,264v16h-24v-16H248z M176,89.112V96v56
				v15.84c-22.16-0.416-41.408-2.432-57.8-5.32C136.288,128.048,161.136,102.512,176,89.112z M96.224,240
				c1.096-22.728,6.768-43.68,14.816-62.448c18.168,3.416,39.768,5.848,64.96,6.288v5.96c-11.832,14.288-19.792,31.6-22.72,50.2
				H96.224z M168.688,312.304c-22.112,0.744-41.248,3.056-57.648,6.144c-8.048-18.768-13.72-39.72-14.816-62.448H152
				C152,276.752,158.176,296.056,168.688,312.304z M159.968,81.92c-16.776,15.728-40.936,42.192-58.328,77.232
				c-23.232-5.432-39.216-12.168-48.184-16.688C79.504,110.32,117.16,88.096,159.968,81.92z M43.864,155.56
				c9.184,4.912,25.928,12.44,51.008,18.552C86.808,193.872,81.248,215.96,80.216,240H16.408
				C17.88,208.92,27.688,180.008,43.864,155.56z M16.408,256h63.808c1.032,24.04,6.592,46.128,14.656,65.888
				c-25.08,6.112-41.824,13.64-51.008,18.552C27.688,315.992,17.88,287.08,16.408,256z M53.464,353.528
				c8.968-4.52,24.952-11.256,48.184-16.688c17.384,35.04,41.552,61.512,58.328,77.24C117.16,407.904,79.504,385.68,53.464,353.528z
				 M176,406.896c-14.864-13.408-39.712-38.936-57.8-73.416c16.392-2.888,35.64-4.912,57.8-5.32V406.896z M168,256
				c0-29.856,15.36-57.552,40-73.648V296h96V182.352c24.64,16.096,40,43.784,40,73.648c0,48.52-39.48,88-88,88S168,304.52,168,256z
				 M192,406.928V337.8c12.448,9.76,27.112,16.816,43.16,20.096C219.904,380.08,203.152,396.912,192,406.928z M207.752,414.256
				c12.792-12.04,30.008-30.528,45.304-54.4C254.04,359.88,255.008,360,256,360c13.256,0,25.888-2.592,37.56-7.128l11.504,11.504
				C278.96,391.504,244.648,408.968,207.752,414.256z M308.768,345.456c15.112-8.952,27.736-21.576,36.688-36.688L372.688,336
				L336,372.688L308.768,345.456z M454.064,480c-6.928,0-13.448-2.696-18.344-7.592L347.312,384L384,347.312l88.408,88.408
				c4.896,4.896,7.592,11.416,7.592,18.344C480,468.368,468.368,480,454.064,480z"/>
			<path d="M472,0h-96c-13.232,0-24,10.768-24,24v64c0,13.232,10.768,24,24,24h96c13.232,0,24-10.768,24-24V24
				C496,10.768,485.232,0,472,0z M480,88c0,4.416-3.584,8-8,8h-96c-4.416,0-8-3.584-8-8V24c0-4.416,3.584-8,8-8h96
				c4.416,0,8,3.584,8,8V88z"/>
			<rect x="384" y="32" width="80" height="16"/>
			<rect x="384" y="64" width="48" height="16"/>
			<rect x="448" y="64" width="16" height="16"/>
		</g>
	</g>
</g>
<g>
</g>
<g>
</g>
<g>
</g>
<g>
</g>
<g>
</g>
<g>
</g>
<g>
</g>
<g>
</g>
<g>
</g>
<g>
</g>
<g>
</g>
<g>
</g>
<g>
</g>
<g>
</g>
<g>
</g>
</svg>
