<?xml version="1.0" encoding="iso-8859-1"?>
<!-- Generator: Adobe Illustrator 19.0.0, SVG Export Plug-In . SVG Version: 6.00 Build 0)  -->
<svg version="1.1" id="Capa_1" xmlns="http://www.w3.org/2000/svg" xmlns:xlink="http://www.w3.org/1999/xlink" x="0px" y="0px"
	 viewBox="0 0 56 56" style="enable-background:new 0 0 56 56;" xml:space="preserve">
<g>
	<g>
	</g>
	<g>
		<path d="M43,16h-6.101c-0.465-2.279-2.484-4-4.899-4h-8c-2.414,0-4.434,1.721-4.899,4H13c-0.552,0-1,0.448-1,1v39h2V18h28v38h2V17
			C44,16.448,43.552,16,43,16z M24,14h8c1.302,0,2.402,0.839,2.816,2H21.184C21.598,14.839,22.698,14,24,14z"/>
		<path d="M28,10c2.757,0,5-2.243,5-5s-2.243-5-5-5s-5,2.243-5,5S25.243,10,28,10z M28,2c1.654,0,3,1.346,3,3s-1.346,3-3,3
			s-3-1.346-3-3S26.346,2,28,2z"/>
		<path d="M46,24c0,2.757,2.243,5,5,5s5-2.243,5-5s-2.243-5-5-5S46,21.243,46,24z M54,24c0,1.654-1.346,3-3,3s-3-1.346-3-3
			s1.346-3,3-3S54,22.346,54,24z"/>
		<path d="M5,19c-2.757,0-5,2.243-5,5s2.243,5,5,5s5-2.243,5-5S7.757,19,5,19z M5,27c-1.654,0-3-1.346-3-3s1.346-3,3-3s3,1.346,3,3
			S6.654,27,5,27z"/>
		<path d="M51,32c-2.757,0-5,2.243-5,5s2.243,5,5,5s5-2.243,5-5S53.757,32,51,32z M51,40c-1.654,0-3-1.346-3-3s1.346-3,3-3
			s3,1.346,3,3S52.654,40,51,40z"/>
		<path d="M5,32c-2.757,0-5,2.243-5,5s2.243,5,5,5s5-2.243,5-5S7.757,32,5,32z M5,40c-1.654,0-3-1.346-3-3s1.346-3,3-3s3,1.346,3,3
			S6.654,40,5,40z"/>
		<path d="M51,45c-2.757,0-5,2.243-5,5s2.243,5,5,5s5-2.243,5-5S53.757,45,51,45z M51,53c-1.654,0-3-1.346-3-3s1.346-3,3-3
			s3,1.346,3,3S52.654,53,51,53z"/>
		<path d="M5,45c-2.757,0-5,2.243-5,5s2.243,5,5,5s5-2.243,5-5S7.757,45,5,45z M5,53c-1.654,0-3-1.346-3-3s1.346-3,3-3s3,1.346,3,3
			S6.654,53,5,53z"/>
		<rect x="4" y="7" width="8" height="2"/>
		<rect x="42" y="4" width="8" height="2"/>
		<path d="M3.2,16.6C3.393,16.856,3.691,17,4,17c0.105,0,0.212-0.017,0.316-0.051C4.725,16.812,5,16.431,5,16v-3h10
			c0.552,0,1-0.448,1-1V4c0-0.552-0.448-1-1-1H1C0.448,3,0,3.448,0,4v8c0,0.216,0.07,0.427,0.2,0.6L3.2,16.6z M2,5h12v6H4
			c-0.552,0-1,0.448-1,1v1l-1-1.333V5z"/>
		<path d="M35,10h18c0.552,0,1-0.448,1-1V1c0-0.552-0.448-1-1-1H39c-0.552,0-1,0.448-1,1v4.5l-3.6,2.7
			c-0.344,0.258-0.485,0.708-0.349,1.116C34.188,9.725,34.569,10,35,10z M39.6,6.8C39.852,6.612,40,6.315,40,6V2h12v6H38L39.6,6.8z"
			/>
		<path d="M21.99,23.858c-0.057-0.402-0.353-0.73-0.747-0.829l-4-1l-0.485,1.94l3.348,0.837L20.847,30H20v2h4v-2h-1.133
			L21.99,23.858z"/>
		<path d="M21.99,35.858c-0.057-0.402-0.353-0.73-0.747-0.829l-4-1l-0.485,1.94l3.348,0.837L20.847,42H20v2h4v-2h-1.133
			L21.99,35.858z"/>
		<path d="M21.99,47.858c-0.057-0.402-0.353-0.73-0.747-0.829l-4-1l-0.485,1.94l3.348,0.837L20.847,54H20v2h4v-2h-1.133
			L21.99,47.858z"/>
		<path d="M34.757,23.03c-0.395,0.099-0.69,0.426-0.747,0.829L33.133,30H32v2h4v-2h-0.847l0.742-5.193l3.348-0.837l-0.485-1.94
			L34.757,23.03z"/>
		<path d="M34.757,35.03c-0.395,0.099-0.69,0.426-0.747,0.829L33.133,42H32v2h4v-2h-0.847l0.742-5.193l3.348-0.837l-0.485-1.94
			L34.757,35.03z"/>
		<path d="M39.243,47.97l-0.485-1.94l-4,1c-0.395,0.099-0.69,0.426-0.747,0.829L33.133,54H32v2h4v-2h-0.847l0.742-5.193
			L39.243,47.97z"/>
		<polygon points="29,20 27,20 27,26 26,26 26,28 30,28 30,26 29,26 		"/>
		<rect x="27" y="30" width="2" height="2"/>
		<rect x="27" y="34" width="2" height="2"/>
		<rect x="27" y="38" width="2" height="2"/>
	</g>
</g>
<g>
</g>
<g>
</g>
<g>
</g>
<g>
</g>
<g>
</g>
<g>
</g>
<g>
</g>
<g>
</g>
<g>
</g>
<g>
</g>
<g>
</g>
<g>
</g>
<g>
</g>
<g>
</g>
<g>
</g>
</svg>
