<?xml version="1.0" encoding="iso-8859-1"?>
<!-- Generator: Adobe Illustrator 19.0.0, SVG Export Plug-In . SVG Version: 6.00 Build 0)  -->
<svg version="1.1" id="Layer_1" xmlns="http://www.w3.org/2000/svg" xmlns:xlink="http://www.w3.org/1999/xlink" x="0px" y="0px"
	 viewBox="0 0 512 512" style="enable-background:new 0 0 512 512;" xml:space="preserve">
<g>
	<g>
		<g>
			<path d="M373.333,128h-128c-5.888,0-10.667,4.779-10.667,10.667s4.779,10.667,10.667,10.667h128
				c5.888,0,10.667-4.779,10.667-10.667S379.221,128,373.333,128z"/>
			<path d="M330.667,448H64V149.333h117.333c5.888,0,10.667-4.779,10.667-10.667V21.333h213.333v245.333
				c0,5.888,4.779,10.667,10.667,10.667c5.888,0,10.667-4.779,10.667-10.667v-256C426.667,4.779,421.888,0,416,0H181.333
				c-1.429,0-2.816,0.299-4.117,0.832c-0.619,0.256-1.088,0.725-1.643,1.088c-0.597,0.384-1.28,0.683-1.792,1.195l-128,128
				c-0.491,0.491-0.768,1.152-1.152,1.728c-0.384,0.576-0.875,1.067-1.131,1.707c-0.533,1.301-0.832,2.688-0.832,4.117v320
				c0,5.888,4.779,10.667,10.667,10.667h277.333c5.888,0,10.667-4.779,10.667-10.667S336.555,448,330.667,448z M170.667,36.416V128
				H79.083L170.667,36.416z"/>
			<path d="M330.667,298.667H96c-5.888,0-10.667,4.779-10.667,10.667S90.112,320,96,320h234.667c5.888,0,10.667-4.779,10.667-10.667
				S336.555,298.667,330.667,298.667z"/>
			<path d="M373.333,213.333H96c-5.888,0-10.667,4.779-10.667,10.667S90.112,234.667,96,234.667h277.333
				c5.888,0,10.667-4.779,10.667-10.667S379.221,213.333,373.333,213.333z"/>
			<path d="M448.107,394.304c12.821-9.771,21.227-25.003,21.227-42.304c0-29.397-23.936-53.333-53.333-53.333
				S362.667,322.603,362.667,352c0,17.28,8.405,32.533,21.205,42.283L362.88,499.221c-0.789,4.011,0.768,8.107,3.989,10.581
				c3.243,2.496,7.616,2.88,11.243,1.067L416,491.925l37.888,18.944c1.515,0.747,3.157,1.131,4.779,1.131
				c2.283,0,4.587-0.747,6.443-2.197c3.243-2.496,4.8-6.571,3.989-10.581L448.107,394.304z M420.757,470.443
				c-2.987-1.493-6.528-1.493-9.536,0l-23.147,11.584l15.637-78.272c3.968,0.96,8.043,1.579,12.288,1.579
				c4.245,0,8.299-0.619,12.267-1.557l15.637,78.251L420.757,470.443z M416,384c-17.643,0-32-14.357-32-32c0-17.643,14.357-32,32-32
				c17.643,0,32,14.357,32,32C448,369.643,433.643,384,416,384z"/>
			<path d="M181.333,405.333c5.888,0,10.667-4.779,10.667-10.667S187.221,384,181.333,384H96c-5.888,0-10.667,4.779-10.667,10.667
				S90.112,405.333,96,405.333H181.333z"/>
		</g>
	</g>
</g>
<g>
</g>
<g>
</g>
<g>
</g>
<g>
</g>
<g>
</g>
<g>
</g>
<g>
</g>
<g>
</g>
<g>
</g>
<g>
</g>
<g>
</g>
<g>
</g>
<g>
</g>
<g>
</g>
<g>
</g>
</svg>
