<?xml version="1.0" encoding="iso-8859-1"?>
<!-- Generator: Adobe Illustrator 19.0.0, SVG Export Plug-In . SVG Version: 6.00 Build 0)  -->
<svg version="1.1" id="Layer_1" xmlns="http://www.w3.org/2000/svg" xmlns:xlink="http://www.w3.org/1999/xlink" x="0px" y="0px"
	 viewBox="0 0 282.732 282.732" style="enable-background:new 0 0 282.732 282.732;" xml:space="preserve">
<g>
	<g>
		<g>
			<path d="M178.125,263.119v-9.375H98.438v-4.688h79.688v-28.125c0-25.847-21.028-46.875-46.875-46.875h-23.438v-4.688
				c0-7.753-6.309-14.063-14.063-14.063s-14.063,6.309-14.063,14.063v4.688H56.25c-25.847,0-46.875,21.028-46.875,46.875v28.125
				h79.688v4.688H9.375v9.375c0,5.17-4.205,9.375-9.375,9.375v9.375h187.5v-9.375C182.33,272.494,178.125,268.289,178.125,263.119z
				 M93.751,164.681c2.588,0,4.688,2.1,4.688,4.688v4.688h-9.375v-4.688h-0.001C89.063,166.782,91.163,164.681,93.751,164.681z
				 M18.751,239.681v-18.75H18.75c0-20.677,16.823-37.5,37.5-37.5h23.438h28.125h23.438c20.677,0,37.5,16.823,37.5,37.5v18.75
				H18.751z M16.233,272.494c1.603-2.761,2.517-5.962,2.517-9.375h150c0,3.413,0.914,6.614,2.517,9.375H16.233z"/>
			<path d="M267.189,46.074h-0.001c0,5.189-2.578,10.008-6.895,12.881c-2.55,1.706-5.517,2.602-8.587,2.602H206.25l-49.786,13.406
				c-1.589,0.436-3.239,0.656-4.903,0.656c-3.445,0-6.248-2.803-6.248-6.248v-1.378c0-2.269,1.233-4.364,3.216-5.466l36.563-20.311
				l-4.552-8.194l-7.378,4.097h-21.764c-4.542,0-9.028,0.727-13.341,2.166L103.74,51.722c-0.914,0.305-1.866,0.459-2.827,0.459
				h-2.92c-4.927,0-8.93-4.003-8.93-8.93c0-3.848,2.452-7.256,6.113-8.48l41.156-13.72c3.356-1.116,6.848-1.683,10.378-1.683
				h107.175l28.847-9.619l-2.967-8.887l-27.398,9.131H146.709c-4.542,0-9.028,0.727-13.341,2.166l-41.16,13.725
				c-7.491,2.494-12.52,9.473-12.52,17.367c0,10.092,8.213,18.305,18.305,18.305h2.92c1.969,0,3.919-0.314,5.789-0.942
				l34.313-11.433c3.361-1.12,6.853-1.687,10.383-1.687h4.889l-12.314,6.839c-4.955,2.756-8.034,7.988-8.034,13.659v1.378
				c0,8.616,7.008,15.623,15.623,15.623c2.503,0,4.987-0.333,7.373-0.989l47.944-13.073h44.827c4.927,0,9.694-1.444,13.786-4.177
				c6.539-4.355,10.589-11.475,11.03-19.261h4.73v-9.375h-14.063V46.074z"/>
			<rect x="89.063" y="103.745" width="9.375" height="28.125"/>
			<rect x="43.229" y="128.219" transform="matrix(0.7071 0.7071 -0.7071 0.7071 110.759 -1.5821)" width="28.12" height="9.375"/>
			<rect x="28.125" y="155.306" width="28.125" height="9.375"/>
			<rect x="131.25" y="155.306" width="28.125" height="9.375"/>
			
				<rect x="125.525" y="118.849" transform="matrix(-0.7071 -0.7071 0.7071 -0.7071 128.3056 318.9641)" width="9.375" height="28.12"/>
		</g>
	</g>
</g>
<g>
</g>
<g>
</g>
<g>
</g>
<g>
</g>
<g>
</g>
<g>
</g>
<g>
</g>
<g>
</g>
<g>
</g>
<g>
</g>
<g>
</g>
<g>
</g>
<g>
</g>
<g>
</g>
<g>
</g>
</svg>
