<?xml version="1.0" encoding="iso-8859-1"?>
<!-- Generator: Adobe Illustrator 19.0.0, SVG Export Plug-In . SVG Version: 6.00 Build 0)  -->
<svg version="1.1" id="Layer_1" xmlns="http://www.w3.org/2000/svg" xmlns:xlink="http://www.w3.org/1999/xlink" x="0px" y="0px"
	 viewBox="0 0 512 512" style="enable-background:new 0 0 512 512;" xml:space="preserve">
<g>
	<g>
		<g>
			<path d="M42.667,273.067c4.71,0,8.533-3.814,8.533-8.533v-25.6c0-4.719-3.823-8.533-8.533-8.533c-4.71,0-8.533,3.814-8.533,8.533
				v25.6C34.133,269.252,37.956,273.067,42.667,273.067z"/>
			<path d="M173.088,436.942l-23.159-10.897c-4.25-1.988-9.344-0.179-11.358,4.087c-2.005,4.267-0.171,9.353,4.087,11.358
				l23.159,10.906c1.178,0.546,2.415,0.802,3.635,0.802c3.2,0,6.272-1.809,7.723-4.898
				C179.18,444.033,177.354,438.947,173.088,436.942z"/>
			<path d="M469.333,264.533c-4.71,0-8.533,3.814-8.533,8.533v25.6c0,4.719,3.823,8.533,8.533,8.533s8.533-3.814,8.533-8.533v-25.6
				C477.867,268.348,474.044,264.533,469.333,264.533z"/>
			<path d="M477.867,213.333c0-4.719-3.823-8.533-8.533-8.533s-8.533,3.814-8.533,8.533v25.6c0,4.719,3.823,8.533,8.533,8.533
				s8.533-3.814,8.533-8.533V213.333z"/>
			<path d="M477.867,342.192v-17.925c0-4.719-3.823-8.533-8.533-8.533s-8.533,3.814-8.533,8.533v17.925
				c-7.505,1.529-14.295,5.04-19.81,9.953c-0.327-0.302-0.672-0.589-1.054-0.844l-51.2-34.133c-3.934-2.62-9.225-1.562-11.836,2.364
				c-2.611,3.925-1.553,9.216,2.364,11.836l51.2,34.133c0.11,0.073,0.227,0.123,0.339,0.19c-2.649,5.552-4.136,11.76-4.136,18.31
				c0,3.794,0.504,7.471,1.438,10.974l-27.419,12.903c-4.267,2.005-6.101,7.091-4.087,11.358c1.451,3.089,4.523,4.898,7.723,4.898
				c1.22,0,2.458-0.256,3.627-0.811l27.785-13.075c7.816,9.984,19.967,16.419,33.601,16.419C492.86,426.667,512,407.526,512,384
				C512,363.395,497.318,346.156,477.867,342.192z M469.333,409.6c-14.114,0-25.6-11.486-25.6-25.6s11.486-25.6,25.6-25.6
				s25.6,11.486,25.6,25.6S483.448,409.6,469.333,409.6z"/>
			<path d="M308.03,451.474l-11.253,5.299c-5.375-17.415-21.621-30.106-40.777-30.106s-35.402,12.691-40.777,30.106l-11.253-5.299
				c-4.25-1.988-9.353-0.171-11.349,4.096c-2.014,4.267-0.179,9.344,4.088,11.358l17.004,8C216.462,495.818,234.371,512,256,512
				c21.629,0,39.538-16.182,42.288-37.072l17.004-8c4.267-2.014,6.101-7.091,4.087-11.358
				C317.374,451.303,312.271,449.486,308.03,451.474z M256,494.933c-14.114,0-25.6-11.486-25.6-25.6s11.486-25.6,25.6-25.6
				s25.6,11.486,25.6,25.6S270.114,494.933,256,494.933z"/>
			<path d="M362.072,426.045l-23.159,10.897c-4.267,2.005-6.093,7.091-4.087,11.358c1.451,3.089,4.523,4.898,7.723,4.898
				c1.22,0,2.458-0.256,3.635-0.802l23.159-10.906c4.258-2.005,6.093-7.091,4.087-11.358
				C371.424,425.865,366.33,424.048,362.072,426.045z"/>
			<path d="M337.26,62.764l23.672,9.754c1.067,0.435,2.167,0.64,3.251,0.64c3.354,0,6.537-1.988,7.893-5.282
				c1.792-4.361-0.282-9.344-4.642-11.145l-23.672-9.745c-4.352-1.766-9.344,0.29-11.145,4.642
				C330.825,55.98,332.908,60.964,337.26,62.764z"/>
			<path d="M203.054,50.417c1.084,0,2.185-0.205,3.243-0.64l7.24-2.981c2.084,21.596,20.33,38.538,42.463,38.538
				c22.133,0,40.38-16.942,42.463-38.538l7.24,2.981c1.058,0.435,2.159,0.64,3.243,0.64c3.354,0,6.537-1.988,7.893-5.282
				c1.792-4.361-0.282-9.344-4.642-11.145l-16.436-6.768C289.559,11.31,274.08,0,256,0c-18.08,0-33.559,11.31-39.761,27.222
				l-16.436,6.768c-4.361,1.801-6.434,6.784-4.642,11.145C196.518,48.428,199.701,50.417,203.054,50.417z M256,17.067
				c14.114,0,25.6,11.486,25.6,25.6s-11.486,25.6-25.6,25.6s-25.6-11.486-25.6-25.6S241.886,17.067,256,17.067z"/>
			<path d="M147.818,73.158c1.084,0,2.185-0.205,3.251-0.64l23.671-9.754c4.352-1.801,6.434-6.784,4.642-11.136
				c-1.801-4.361-6.793-6.417-11.145-4.642l-23.671,9.745c-4.361,1.801-6.434,6.784-4.642,11.145
				C141.281,71.17,144.464,73.158,147.818,73.158z"/>
			<path d="M132.736,172.1l-51.2-34.133c-0.109-0.073-0.223-0.133-0.335-0.2c2.646-5.549,4.132-11.754,4.132-18.3
				c0-6.507-1.47-12.676-4.086-18.2l30.364-12.51c4.361-1.801,6.434-6.784,4.642-11.136c-1.792-4.361-6.801-6.426-11.145-4.642
				L73.552,85.975c-0.969,0.4-1.817,0.964-2.542,1.636C63.467,80.893,53.538,76.8,42.667,76.8C19.14,76.8,0,95.94,0,119.467
				c0,20.605,14.682,37.844,34.133,41.808v26.459c0,4.719,3.823,8.533,8.533,8.533c4.71,0,8.533-3.814,8.533-8.533v-26.459
				c7.505-1.529,14.295-5.04,19.81-9.953c0.327,0.302,0.672,0.589,1.054,0.845l51.2,34.133c1.459,0.964,3.106,1.434,4.727,1.434
				c2.756,0,5.461-1.331,7.108-3.797C137.711,180.011,136.653,174.72,132.736,172.1z M42.667,145.067
				c-14.114,0-25.6-11.486-25.6-25.6s11.486-25.6,25.6-25.6s25.6,11.486,25.6,25.6S56.781,145.067,42.667,145.067z"/>
			<path d="M384.009,187.733c1.621,0,3.268-0.469,4.727-1.434l51.2-34.133c0.382-0.255,0.727-0.542,1.054-0.845
				c5.515,4.913,12.305,8.423,19.81,9.953v26.459c0,4.719,3.823,8.533,8.533,8.533s8.533-3.814,8.533-8.533v-26.459
				C497.318,157.31,512,140.071,512,119.467C512,95.94,492.86,76.8,469.333,76.8c-10.871,0-20.801,4.093-28.343,10.811
				c-0.726-0.672-1.574-1.236-2.542-1.636l-31.556-12.996c-4.352-1.775-9.353,0.29-11.145,4.642s0.282,9.335,4.642,11.136
				l30.364,12.51c-2.616,5.524-4.086,11.693-4.086,18.2c0,6.546,1.486,12.751,4.132,18.301c-0.111,0.067-0.225,0.127-0.335,0.2
				l-51.2,34.133c-3.917,2.62-4.975,7.91-2.364,11.836C378.547,186.402,381.252,187.733,384.009,187.733z M469.333,93.867
				c14.114,0,25.6,11.486,25.6,25.6s-11.486,25.6-25.6,25.6s-25.6-11.486-25.6-25.6S455.219,93.867,469.333,93.867z"/>
			<path d="M123.264,317.167l-51.2,34.133c-0.382,0.255-0.728,0.542-1.054,0.845c-5.515-4.913-12.305-8.423-19.81-9.953v-43.525
				c0-4.719-3.823-8.533-8.533-8.533c-4.71,0-8.533,3.814-8.533,8.533v43.525C14.682,346.156,0,363.395,0,384
				c0,23.526,19.14,42.667,42.667,42.667c13.633,0,25.784-6.435,33.601-16.419l27.785,13.075c1.169,0.555,2.406,0.811,3.627,0.811
				c3.2,0,6.272-1.809,7.723-4.898c2.014-4.267,0.179-9.353-4.087-11.358l-27.419-12.903c0.934-3.504,1.438-7.181,1.438-10.974
				c0-6.55-1.487-12.758-4.136-18.31c0.112-0.067,0.229-0.117,0.339-0.19l51.2-34.133c3.917-2.62,4.975-7.91,2.364-11.836
				C132.471,315.605,127.181,314.547,123.264,317.167z M42.667,409.6c-14.114,0-25.6-11.486-25.6-25.6s11.486-25.6,25.6-25.6
				s25.6,11.486,25.6,25.6S56.781,409.6,42.667,409.6z"/>
			<path d="M336.052,276.113h13.815c4.71,0,8.533-3.814,8.533-8.533v-40.226c0-4.719-3.823-8.533-8.533-8.533h-13.815
				c-1.758,0-3.345-1.075-4.104-2.927c-0.683-1.664-0.324-3.533,0.913-4.779l9.771-9.762c3.328-3.337,3.328-8.738,0-12.066
				l-28.45-28.45c-1.596-1.604-3.772-2.5-6.033-2.5c-2.261,0-4.429,0.896-6.033,2.5l-9.762,9.762
				c-1.246,1.246-3.132,1.604-4.941,0.853c-1.681-0.691-2.765-2.278-2.765-4.036V153.6c0-4.719-3.823-8.533-8.533-8.533h-40.226
				c-4.71,0-8.533,3.814-8.533,8.533v13.815c0,1.758-1.084,3.345-2.014,3.772c-0.256,0.077-0.666,0.222-0.913,0.333
				c-1.681,0.657-3.533,0.324-4.779-0.922l-9.762-9.762c-3.2-3.2-8.866-3.2-12.066,0l-28.45,28.45c-3.337,3.328-3.337,8.73,0,12.066
				l9.771,9.762c1.237,1.246,1.596,3.115,0.836,4.958c-0.683,1.673-2.27,2.748-4.028,2.748h-13.815c-4.71,0-8.533,3.814-8.533,8.533
				v40.226c0,4.719,3.823,8.533,8.533,8.533h13.815c1.758,0,3.345,1.075,4.105,2.927c0.683,1.664,0.324,3.533-0.913,4.779
				l-9.771,9.762c-3.337,3.337-3.337,8.738,0,12.066l28.45,28.45c1.596,1.604,3.763,2.5,6.033,2.5c2.261,0,4.429-0.896,6.033-2.5
				l9.762-9.762c1.237-1.254,3.115-1.621,4.941-0.853c1.681,0.691,2.765,2.278,2.765,4.036v13.815c0,4.719,3.823,8.533,8.533,8.533
				h40.226c4.71,0,8.533-3.814,8.533-8.533v-13.815c0-1.758,1.084-3.345,2.014-3.772c0.256-0.077,0.666-0.222,0.913-0.333
				c1.655-0.674,3.524-0.324,4.779,0.922l9.762,9.762c3.2,3.2,8.866,3.2,12.066,0l28.45-28.45c3.328-3.328,3.328-8.73,0-12.066
				l-9.771-9.762c-1.237-1.246-1.596-3.115-0.836-4.958C332.707,277.188,334.294,276.113,336.052,276.113z M320.794,295.885
				l3.738,3.729l-16.384,16.384l-3.729-3.729c-6.135-6.153-15.317-7.962-23.518-4.565c-8.09,3.337-13.321,11.11-13.321,19.814v5.282
				h-23.159v-5.282c0-8.704-5.231-16.478-13.474-19.866c-8.038-3.328-17.229-1.527-23.364,4.617l-3.729,3.729l-16.384-16.384
				l3.738-3.729c6.127-6.135,7.945-15.3,4.557-23.492c-3.319-8.107-11.093-13.346-19.814-13.346h-5.282v-23.159h5.282
				c8.721,0,16.495-5.24,19.874-13.483c3.328-8.055,1.51-17.22-4.617-23.356l-3.738-3.729l16.384-16.384l3.729,3.729
				c6.135,6.144,15.309,7.945,23.518,4.565c8.09-3.337,13.321-11.11,13.321-19.814v-5.282h23.159v5.282
				c0,8.704,5.231,16.478,13.474,19.866c8.055,3.337,17.229,1.536,23.364-4.617l3.729-3.729l16.384,16.384l-3.738,3.729
				c-6.135,6.135-7.945,15.3-4.557,23.492c3.319,8.107,11.093,13.346,19.814,13.346h5.282v23.159h-5.282
				c-8.721,0-16.495,5.24-19.874,13.483C312.85,280.585,314.659,289.749,320.794,295.885z"/>
			<path d="M256,196.267c-28.237,0-51.2,22.963-51.2,51.2s22.963,51.2,51.2,51.2s51.2-22.963,51.2-51.2S284.237,196.267,256,196.267
				z M256,281.6c-18.825,0-34.133-15.309-34.133-34.133s15.309-34.133,34.133-34.133c18.825,0,34.133,15.309,34.133,34.133
				S274.825,281.6,256,281.6z"/>
		</g>
	</g>
</g>
<g>
</g>
<g>
</g>
<g>
</g>
<g>
</g>
<g>
</g>
<g>
</g>
<g>
</g>
<g>
</g>
<g>
</g>
<g>
</g>
<g>
</g>
<g>
</g>
<g>
</g>
<g>
</g>
<g>
</g>
</svg>
